<!DOCTYPE svg PUBLIC "-//W3C//DTD SVG 1.1//EN" "http://www.w3.org/Graphics/SVG/1.1/DTD/svg11.dtd">
<!-- Uploaded to: SVG Repo, www.svgrepo.com, Transformed by: SVG Repo Mixer Tools -->
<svg version="1.1" id="Layer_1" xmlns="http://www.w3.org/2000/svg" xmlns:xlink="http://www.w3.org/1999/xlink" viewBox="-51.2 -51.2 614.37 614.37" xml:space="preserve" width="800px" height="800px" fill="#000000" stroke="#000000">
<g id="SVGRepo_bgCarrier" stroke-width="0">
<rect x="-51.2" y="-51.2" width="614.37" height="614.37" rx="307.185" fill="#ffffff" strokewidth="0"/>
</g>
<g id="SVGRepo_tracerCarrier" stroke-linecap="round" stroke-linejoin="round"/>
<g id="SVGRepo_iconCarrier"> <path style="fill:#221023;" d="M0,354.16V107.008c0.08-4.352,3.584-7.856,7.936-7.936h374.696c4.352,0.08,7.856,3.584,7.936,7.936 V354.16H0z"/> <path d="M390.568,354.16v31.736c-0.08,4.352-3.584,7.856-7.936,7.936H7.936C3.584,393.76,0.08,390.248,0,385.904v-31.736h390.568 V354.16z"/> <rect x="111.68" y="449.984" style="fill:#146313;" width="167.208" height="7.936"/> <polygon style="fill:#221023;" points="250.816,449.984 139.752,449.984 147.68,393.832 242.88,393.832 "/> <rect x="15.864" y="114.944" width="358.832" height="223.352"/> <polygon style="fill:#146313;" points="242.88,393.832 147.68,393.832 143.256,425.168 244.304,403.928 "/> <circle style="fill:#1b43e4;" cx="447.728" cy="212.784" r="64.24"/> <path style="fill:#f7f7f7;" d="M444.624,248.032V239.4c-5.056-0.064-10.008-1.408-14.4-3.912l2.4-8.36 c4.208,2.488,8.992,3.84,13.88,3.912c5.6,0,9.432-2.76,9.432-7.032c0-4-3.112-6.584-9.696-8.992 c-9.344-3.376-15.4-7.656-15.4-15.928c0.184-7.96,6.368-14.496,14.312-15.104v-8.72h7.296v8.28c4.264,0.048,8.456,1.048,12.28,2.936 l-2.4,8.184c-3.736-1.96-7.888-2.992-12.104-3.024c-6.224,0-8.456,3.2-8.456,6.232c0,3.648,3.2,5.696,10.768,8.72 c9.968,3.736,14.4,8.544,14.4,16.464c-0.176,8.368-6.688,15.232-15.04,15.84v9.168L444.624,248.032z"/> <circle style="fill:#1b43e4;" cx="293.272" cy="116.488" r="62.44"/> <path style="fill:#f7f7f7;" d="M290.28,150.752v-8.368c-4.92-0.056-9.744-1.368-14.016-3.808l2.336-8.136 c4.096,2.424,8.744,3.736,13.504,3.808c5.456,0,9.168-2.68,9.168-6.84c0-3.896-3.024-6.4-9.432-8.744 c-9.088-3.288-14.976-7.44-14.976-15.488c0.168-7.76,6.2-14.128,13.936-14.712v-8.48h7.096v8c4.144,0.048,8.224,1.024,11.944,2.856 l-2.336,8c-3.632-1.904-7.672-2.92-11.776-2.944c-6.056,0-8.216,3.12-8.216,6.056c0,3.552,3.12,5.536,10.472,8.488 c9.696,3.632,14.024,8.312,14.024,16c-0.176,8.136-6.504,14.808-14.624,15.4v8.912L290.28,150.752L290.28,150.752z"/> <circle style="fill:#999999;" cx="310.464" cy="268.24" r="48.32"/> <g> <path style="fill:#f7f7f7;" d="M308.144,294.768v-6.496c-3.808-0.048-7.544-1.064-10.848-2.952l1.808-6.296 c3.168,1.872,6.776,2.888,10.456,2.944c4.224,0,7.112-2.08,7.112-5.288c0-3.016-2.344-4.96-7.304-6.776 c-7.04-2.544-11.592-5.76-11.592-12c0.128-6.008,4.8-10.944,10.792-11.392v-6.528h5.496v6.232c3.208,0.032,6.368,0.792,9.248,2.208 l-1.816,6.168c-2.808-1.48-5.936-2.256-9.112-2.28c-4.696,0-6.4,2.4-6.4,4.688c0,2.752,2.4,4.288,8.112,6.568 c7.504,2.816,10.848,6.4,10.848,12.392c-0.128,6.304-5.032,11.464-11.32,11.928v6.904L308.144,294.768z"/> <circle style="fill:#f7f7f7;" cx="178.744" cy="293.936" r="21.264"/> </g> <circle style="fill:#999999;" cx="178.744" cy="293.936" r="10.328"/> <g> <polygon style="fill:#f7f7f7;" points="98.608,190.416 84.64,149.088 48.48,149.088 48.48,138.04 92.568,138.04 109.072,186.872 "/> <circle style="fill:#f7f7f7;" cx="114.592" cy="293.936" r="21.264"/> <polygon style="fill:#f7f7f7;" points="100.304,259.152 77.256,185.144 219.512,185.144 193.128,259.152 "/> </g> <g> <path style="fill:#1b43e4;" d="M213.84,189.144l-23.528,66.04h-87.064l-20.56-66.016H213.84 M225.184,181.16H71.816l25.544,82.024 h98.592C195.952,263.184,225.184,181.168,225.184,181.16z"/> <polygon style="fill:#1b43e4;" points="210.744,210.176 175.168,210.176 166.616,225.2 131.392,225.2 134.72,235.592 200.48,235.592 "/> </g> <circle style="fill:#999999;" cx="114.592" cy="293.936" r="10.328"/> </g>
</svg>